<?xml version="1.0" encoding="utf-8"?>
<!-- Generator: Adobe Illustrator 23.0.6, SVG Export Plug-In . SVG Version: 6.00 Build 0)  -->
<svg version="1.1" id="Vrstva_1" xmlns="http://www.w3.org/2000/svg" xmlns:xlink="http://www.w3.org/1999/xlink" x="0px" y="0px"
	 viewBox="0 0 600 225" style="enable-background:new 0 0 600 225;" xml:space="preserve">
<style type="text/css">
	.st0{fill:#003893;}
</style>
<path class="st0" d="M319.2,106.8l-30.5-37.9h-0.2v37.9h-19.5V24.6h19.5V58h0.4l29.4-33.4H343l-35.4,37.9l37.5,44.4H319.2
	 M407.2,106.8L374.1,53h-0.3l0.5,53.8h-19.3V24.6h22.6l33,53.6h0.4l-0.5-53.6h19.3v82.2H407.2z M486.1,109
	c-25.7,0-44.7-17.7-44.7-43.7c0-26.4,19-43,44.7-43c25.8,0,44.8,16.6,44.8,43C530.9,91.3,511.9,109,486.1,109z M486.1,40.3
	c-13.9,0-23.5,10.7-23.5,25.1c0,14.9,9.6,25.5,23.5,25.5c13.8,0,23.6-10.7,23.6-25.5C509.7,50.9,500,40.3,486.1,40.3z M576.8,41.5
	v65.3h-19.9V41.5h-23.2v-17H600v17H576.8z M299.6,200.2h-30.7V118h29.7c23.3,0,47,9.8,47,40.9C345.7,187.8,322.2,200.2,299.6,200.2z
	 M298.2,134.9h-9.9V183h9.4c14.2,0,27.3-5.8,27.3-24.2C325,140.4,311.9,134.9,298.2,134.9z M407.2,200.2l-33.1-53.8h-0.3l0.5,53.8
	h-19.3V118h22.6l33,53.6h0.4l-0.5-53.6h19.3v82.2H407.2z M488.6,139.3c-3.4-4.3-9.5-7.1-14.6-7.1c-5.1,0-11.5,1.7-11.5,8.2
	c0,5.5,4.9,7.2,12.7,9.6c11.1,3.6,25.5,8.4,25.5,24.7c0,18.9-15.2,27.4-31.5,27.4c-11.7,0-23.6-4.3-30.8-11.8l13-13.2
	c3.9,5,11.3,8.7,17.8,8.7c6,0,11.4-2.3,11.4-8.9c0-6.3-6.3-8.2-17.1-11.7c-10.5-3.4-21-8.7-21-23.6c0-18.2,16.5-25.8,31.8-25.8
	c9.3,0,19.7,3.5,26.9,10.1L488.6,139.3z M184.9,27.1c1.3,6.9,2.1,14,2.1,21.3c0,22.2-6.6,43-17.9,60.4c-0.4,0.6-0.8,1.2-1.2,1.8
	c-0.4,0.6-0.8,1.2-1.2,1.7c-4.3,6.2-9.3,11.9-14.8,17.1c-0.5,0.5-1,0.9-1.5,1.4c-0.5,0.5-1,0.9-1.5,1.4c-10.9,9.6-23.6,17-37.6,21.8
	c-3.5-6.3-6.2-13.1-8.1-20.3c12-3.9,23-10.3,32.2-18.6c0.5-0.4,1-0.9,1.4-1.3c0.5-0.4,1-0.9,1.4-1.4c5.2-5.1,9.8-10.9,13.6-17.1
	c0.4-0.6,0.7-1.2,1-1.7c0.4-0.6,0.7-1.2,1-1.8c7.1-12.9,11.2-27.6,11.2-43.3c0-6.4-0.7-12.6-2-18.6c-0.1-0.7-0.3-1.3-0.4-1.9
	c-0.2-0.6-0.3-1.3-0.5-1.9c-0.6,0.2-1.3,0.3-1.9,0.5c-0.6,0.2-1.3,0.4-1.9,0.6c-20.6,6.7-37.9,20.7-49,38.9
	c-7.2-2.2-14.7-3.8-22.4-4.6c13.2-25.5,35.8-45.3,63.3-54.6c0,0,0,0,0,0c-12.1-4.5-25.3-6.9-38.9-6.9C55.7-0.1,9.4,40.5,0.6,93.8
	c0.5-0.4,1-0.9,1.5-1.3c19.6-17.2,45.3-27.7,73.4-27.7c1.9,0,3.7,0,5.5,0.1c0.7,0,1.4,0.1,2.1,0.1c0.7,0.1,1.4,0.1,2.1,0.2
	c7.7,0.7,15.1,2.1,22.2,4.3c0.6,0.2,1.3,0.4,1.9,0.6c0.6,0.2,1.3,0.4,1.9,0.6c14,4.8,26.7,12.2,37.6,21.8c-3.8,6.3-8.3,12-13.5,17.1
	c-9.2-8.3-20.1-14.7-32.1-18.6c-0.6-0.2-1.2-0.4-1.9-0.6c-0.6-0.2-1.3-0.4-1.9-0.6c-6.9-1.9-14.2-3-21.6-3.2c-0.7,0-1.4,0-2.1,0
	h-0.3c-0.6,0-1.2,0-1.8,0c-22.3,0.4-42.7,9-58.1,23c-0.5,0.4-1,0.9-1.4,1.3c-0.5,0.4-1,0.9-1.4,1.4c0.4,0.4,0.9,0.9,1.4,1.4
	c0.5,0.5,1,0.9,1.5,1.3c15.5,13.9,35.8,22.5,58.1,23c1.7,7.5,4.2,14.8,7.3,21.7c-1.8,0.1-3.7,0.1-5.5,0.1
	c-28.1,0-53.8-10.5-73.4-27.7c-0.5-0.4-1-0.9-1.5-1.3c8.8,53.3,55.1,94,110.9,94c13.7,0,26.8-2.4,38.9-6.9
	c-27.5-9.4-50.1-29.2-63.3-54.7c-0.3-0.6-0.6-1.3-0.9-1.9c-0.3-0.6-0.6-1.3-0.9-1.9c-3.2-6.8-5.7-13.9-7.5-21.4
	c-0.2-0.6-0.3-1.3-0.4-2c-0.2-0.6-0.3-1.3-0.4-2c-1.4-7-2.1-14.3-2.1-21.7c0-7.4,0.7-14.7,2.1-21.7c7.5,0.1,14.7,1.2,21.6,3.1
	c-1.3,6-1.9,12.2-1.9,18.6s0.7,12.6,1.9,18.6c0.1,0.6,0.3,1.3,0.4,1.9c0.2,0.6,0.3,1.3,0.5,1.9c1.9,7.2,4.6,14,8,20.4
	c0.3,0.6,0.6,1.2,1,1.8c0.3,0.6,0.7,1.2,1,1.8c11.1,18.2,28.4,32.2,49,38.9c0.6,0.2,1.3,0.4,1.9,0.6c0.6,0.2,1.3,0.4,1.9,0.5
	c0.2-0.6,0.3-1.3,0.5-1.9c0.2-0.6,0.3-1.3,0.4-2c1.3-6,2-12.2,2-18.6c0-15.7-4.1-30.5-11.2-43.3c5.6-5.2,10.7-10.9,15.1-17.1
	c11.3,17.4,17.9,38.2,17.9,60.5c0,7.3-0.7,14.4-2.1,21.2c23.9-20.6,39-51.1,39-85.2C223.9,78.3,208.8,47.8,184.9,27.1z"/>
</svg>
